PathFileType	4	(X/Y/Z)	/Users/itak/Documents/Research/Walk-IL/dataset/trc/00451_00167.trc
DataRate	CameraRate	NumFrames	NumMarkers	Units	OrigDataRate	OrigDataStartFrame	OrigNumFrames
100.000000	100.000000	4	53	mm	100.000000	170	455
Frame#	Time	RPSI			LPSI			L3			STRN			T10			C7			CLAV			RBAK			LBAK			LSHO			LUPA			LAEL			LAOL			LWTS			LWPS			LFRA			LIFD			LHPS			LHTS			RSHO			RUPA			RAEL			RAOL			RWTS			RWPS			RFRA			RIFD			RHTS			RHPS			RBHD			LFHD			RFHD			LBHD			LHIP			RHIP			RASI			LASI			LKNE			LTHI			LANK			LTIP			LTOE			LMT1			LMT5			LHEE			RKNE			RTHI			RANK			RTIP			RTOE			RMT1			RMT5			RHEE			
		X1	Y1	Z1	X2	Y2	Z2	X3	Y3	Z3	X4	Y4	Z4	X5	Y5	Z5	X6	Y6	Z6	X7	Y7	Z7	X8	Y8	Z8	X9	Y9	Z9	X10	Y10	Z10	X11	Y11	Z11	X12	Y12	Z12	X13	Y13	Z13	X14	Y14	Z14	X15	Y15	Z15	X16	Y16	Z16	X17	Y17	Z17	X18	Y18	Z18	X19	Y19	Z19	X20	Y20	Z20	X21	Y21	Z21	X22	Y22	Z22	X23	Y23	Z23	X24	Y24	Z24	X25	Y25	Z25	X26	Y26	Z26	X27	Y27	Z27	X28	Y28	Z28	X29	Y29	Z29	X30	Y30	Z30	X31	Y31	Z31	X32	Y32	Z32	X33	Y33	Z33	X34	Y34	Z34	X35	Y35	Z35	X36	Y36	Z36	X37	Y37	Z37	X38	Y38	Z38	X39	Y39	Z39	X40	Y40	Z40	X41	Y41	Z41	X42	Y42	Z42	X43	Y43	Z43	X44	Y44	Z44	X45	Y45	Z45	X46	Y46	Z46	X47	Y47	Z47	X48	Y48	Z48	X49	Y49	Z49	X50	Y50	Z50	X51	Y51	Z51	X52	Y52	Z52	X53	Y53	Z53	

171	1.7	-1770.281982421875	972.4127807617188	-561.1688232421875	-1696.490600585938	970.345703125	-682.4034423828125	-1722.909545898438	1065.055541992188	-594.1198120117188	-1463.71484375	1237.5869140625	-470.7063598632812	-1727.323974609375	1190.83740234375	-598.2669677734375	-1651.090698242188	1452.179077148438	-547.4297485351562	-1484.287719726562	1354.373657226562	-487.533935546875	-1759.208984375	1340.664184570312	-493.8542175292969	-1644.342651367188	1406.720458984375	-651.6232299804688	-1515.953002929688	1421.165283203125	-684.6209716796875	-1496.104858398438	1303.775756835938	-782.6314086914062	-1482.988159179688	1086.33837890625	-812.2989501953125	-1582.978149414062	1081.1044921875	-788.4066162109375	-1444.931396484375	885.3933715820312	-742.8319091796875	-1466.275146484375	867.7728271484375	-813.6085815429688	-1466.9970703125	997.698486328125	-814.5337524414062	-1437.600341796875	719.948486328125	-735.9321899414062	-1457.711791992188	786.6616821289062	-807.70068359375	-1422.908081054688	799.2327270507812	-744.0121459960938	-1660.276245117188	1418.375366210938	-373.4543151855469	-1714.550903320312	1359.571655273438	-314.9443664550781	-1758.3828125	1076.954833984375	-264.8267517089844	-1792.329833984375	1063.735107421875	-322.2831420898438	-1663.32373046875	869.7000122070312	-266.314697265625	-1747.062866210938	857.2627563476562	-242.2521667480469	-1763.332641601562	1018.952270507812	-254.9465026855469	-1669.682006835938	710.9354248046875	-260.7388305664062	-1657.336669921875	769.9129028320312	-250.0006561279297	-1733.221557617188	769.5267333984375	-239.0089874267578	-1604.540283203125	1640.359497070312	-435.273193359375	-1411.094970703125	1649.195922851562	-512.6221313476562	-1471.970581054688	1649.943603515625	-396.0464477539062	-1537.521484375	1644.561889648438	-599.81201171875	-1526.961669921875	853.8567504882812	-716.5145874023438	-1750.032836914062	862.2151489257812	-386.5252075195312	-1624.957397460938	893.0025634765625	-383.7237243652344	-1480.806762695312	887.4649047851562	-597.0971069335938	-1547.31396484375	429.1139221191406	-667.1257934570312	-1509.393432617188	580.1680908203125	-676.6367797851562	-1688.94970703125	32.78092193603516	-749.6381225585938	-1581.331298828125	277.8304443359375	-697.1815795898438	-1533.0927734375	56.64595794677734	-575.32763671875	-1608.696899414062	54.53084945678711	-585.5374145507812	-1555.562255859375	51.48358917236328	-685.42822265625	-1764.141235351562	31.30200004577637	-732.9948120117188	-1730.372436523438	467.2547912597656	-394.9050903320312	-1726.515747070312	726.0496215820312	-354.8158264160156	-1817.924194335938	41.37966537475586	-425.7799987792969	-1754.457397460938	323.2820129394531	-387.1916809082031	-1606.994140625	54.2530403137207	-368.9815063476562	-1644.860595703125	57.5994987487793	-430.8521423339844	-1709.048095703125	47.27372360229492	-343.7276916503906	-1855.673217773438	33.35086441040039	-499.4295959472656	
172	1.71	-1766.7998046875	972.3103637695312	-560.618408203125	-1693.02685546875	970.0978393554688	-681.8414306640625	-1719.305053710938	1064.837524414062	-593.4478759765625	-1459.881225585938	1236.80322265625	-469.9193725585938	-1723.545532226562	1190.603149414062	-597.4320678710938	-1647.015625	1451.7890625	-546.3057861328125	-1480.293212890625	1353.640991210938	-486.5762023925781	-1755.27197265625	1340.394165039062	-492.908203125	-1640.421142578125	1406.479125976562	-650.5400390625	-1511.9580078125	1420.749633789062	-683.5753784179688	-1492.367309570312	1303.420166015625	-781.7244873046875	-1479.754516601562	1085.891845703125	-811.4141235351562	-1579.633056640625	1080.799682617188	-787.5255126953125	-1442.313110351562	884.8057250976562	-741.9296875	-1463.684814453125	867.2567138671875	-812.824951171875	-1463.9912109375	997.2214965820312	-813.7220458984375	-1435.545043945312	719.3385009765625	-735.0723266601562	-1455.413208007812	786.0899047851562	-806.934326171875	-1420.66650390625	798.5521850585938	-743.1887817382812	-1656.168701171875	1417.7705078125	-372.380615234375	-1710.599731445312	1359.013305664062	-314.0621948242188	-1755.685791015625	1076.750244140625	-264.019287109375	-1789.666381835938	1063.626098632812	-321.4642028808594	-1661.198120117188	869.1809692382812	-265.5954895019531	-1744.999389648438	856.9807739257812	-241.5000457763672	-1760.767333984375	1018.749877929688	-254.1372985839844	-1667.875854492188	710.479736328125	-260.1103210449219	-1655.598754882812	769.354736328125	-249.417236328125	-1731.494750976562	769.2460327148438	-238.2729339599609	-1600.530029296875	1639.776611328125	-434.2595520019531	-1407.082153320312	1648.748901367188	-511.6832275390625	-1467.973999023438	1649.5234375	-395.0742797851562	-1533.583618164062	1643.937377929688	-598.8228759765625	-1523.791381835938	853.2049560546875	-716.1561279296875	-1746.77294921875	861.95458984375	-386.0213012695312	-1621.697021484375	892.4118041992188	-383.3221740722656	-1477.463256835938	886.740234375	-596.6609497070312	-1545.900512695312	428.4845581054688	-666.66552734375	-1507.328125	579.4049072265625	-676.1171875	-1688.975341796875	32.81898498535156	-749.7142333984375	-1580.533447265625	277.3067626953125	-696.82958984375	-1533.317993164062	57.18528366088867	-575.3072509765625	-1608.92333984375	54.68601989746094	-585.530029296875	-1555.8291015625	51.77069473266602	-685.4335327148438	-1764.1416015625	31.26382637023926	-733.1423950195312	-1728.509643554688	466.9848937988281	-394.4934692382812	-1723.662353515625	725.784912109375	-354.3533325195312	-1817.981201171875	41.30828094482422	-425.6841125488281	-1753.3896484375	323.1174011230469	-386.958984375	-1607.080200195312	54.40060806274414	-368.9457397460938	-1644.912231445312	57.66658401489258	-430.8162536621094	-1709.056274414062	47.2012939453125	-343.6867065429688	-1855.677856445312	33.38217544555664	-499.4077453613281	
173	1.72	-1763.191162109375	972.1707153320312	-560.00439453125	-1689.448486328125	969.8251342773438	-681.2252197265625	-1715.567626953125	1064.58740234375	-592.7340087890625	-1455.913818359375	1235.984252929688	-469.1128540039062	-1719.64453125	1190.33642578125	-596.5570678710938	-1642.814086914062	1451.358154296875	-545.1325073242188	-1476.178588867188	1352.871459960938	-485.5820922851562	-1751.21240234375	1340.095336914062	-491.9198303222656	-1636.389770507812	1406.210693359375	-649.4174194335938	-1507.864501953125	1420.3046875	-682.5032348632812	-1488.521240234375	1303.0517578125	-780.7998046875	-1476.404663085938	1085.428344726562	-810.51171875	-1576.185668945312	1080.510620117188	-786.6549072265625	-1439.542236328125	884.2118530273438	-741.0004272460938	-1460.9521484375	866.7332763671875	-812.0285034179688	-1460.8486328125	996.723388671875	-812.8876953125	-1433.4091796875	718.7136840820312	-734.2094116210938	-1452.985107421875	785.5023803710938	-806.1603393554688	-1418.283081054688	797.86328125	-742.3533935546875	-1651.929443359375	1417.132202148438	-371.2733764648438	-1706.539672851562	1358.434936523438	-313.1455993652344	-1752.948852539062	1076.553100585938	-263.16064453125	-1786.969360351562	1063.522583007812	-320.5970153808594	-1659.084838867188	868.647705078125	-264.8171691894531	-1742.947875976562	856.7044067382812	-240.7023773193359	-1758.173217773438	1018.547485351562	-253.2735900878906	-1666.052978515625	710.0140991210938	-259.4190063476562	-1653.871215820312	768.78125	-248.7837066650391	-1729.822265625	768.9859008789062	-237.4878082275391	-1596.404174804688	1639.150268554688	-433.2030029296875	-1402.972778320312	1648.27734375	-510.7195739746094	-1463.884155273438	1649.072265625	-394.0794372558594	-1529.5400390625	1643.274658203125	-597.8165893554688	-1520.515991210938	852.5234985351562	-715.7808837890625	-1743.375854492188	861.6611938476562	-385.4676208496094	-1618.277954101562	891.786376953125	-382.8992004394531	-1474.006469726562	885.9733276367188	-596.215087890625	-1544.4833984375	427.8238830566406	-666.212646484375	-1505.201293945312	578.6216430664062	-675.60888671875	-1689.00146484375	32.88847732543945	-749.8250732421875	-1579.664306640625	276.7855834960938	-696.4804077148438	-1533.548461914062	57.67045593261719	-575.2833251953125	-1609.141723632812	54.82863235473633	-585.5195922851562	-1556.08251953125	52.04541015625	-685.4264526367188	-1764.153198242188	31.23626518249512	-733.3054809570312	-1726.478149414062	466.6766052246094	-393.9962463378906	-1720.62255859375	725.4776611328125	-353.8323364257812	-1818.044067382812	41.23530578613281	-425.5773315429688	-1752.235229492188	322.9222412109375	-386.6728820800781	-1607.122680664062	54.43571853637695	-368.9864196777344	-1644.958740234375	57.71218872070312	-430.7945861816406	-1709.064208984375	47.11468124389648	-343.6419372558594	-1855.679809570312	33.41793823242188	-499.383056640625	
174	1.73	-1759.459716796875	971.9861450195312	-559.3242797851562	-1685.755126953125	969.5269165039062	-680.5584716796875	-1711.700805664062	1064.296875	-591.9779052734375	-1451.813842773438	1235.127563476562	-468.281494140625	-1715.614868164062	1190.033081054688	-595.63671875	-1638.49462890625	1450.889526367188	-543.9140625	-1471.941772460938	1352.062744140625	-484.5510559082031	-1747.01904296875	1339.756958007812	-490.8883056640625	-1632.248413085938	1405.915405273438	-648.2582397460938	-1503.672973632812	1419.826049804688	-681.4028930664062	-1484.572265625	1302.668212890625	-779.855712890625	-1472.93603515625	1084.946044921875	-809.5975341796875	-1572.662231445312	1080.253295898438	-785.8046875	-1436.62548828125	883.609130859375	-740.0477294921875	-1458.071166992188	866.2010498046875	-811.218994140625	-1457.569091796875	996.1993408203125	-812.0269775390625	-1431.179809570312	718.0689697265625	-733.3533325195312	-1450.406372070312	784.9005737304688	-805.3697509765625	-1415.742919921875	797.160888671875	-741.5067749023438	-1647.560424804688	1416.456787109375	-370.1359252929688	-1702.3681640625	1357.834350585938	-312.1956176757812	-1750.173217773438	1076.35595703125	-262.2567749023438	-1784.245971679688	1063.4267578125	-319.6847839355469	-1657.000122070312	868.1004028320312	-263.9744262695312	-1740.918579101562	856.4337158203125	-239.8620758056641	-1755.56005859375	1018.345092773438	-252.3587188720703	-1664.295166015625	709.529541015625	-258.660888671875	-1652.159057617188	768.1986083984375	-248.0884704589844	-1728.195190429688	768.7310180664062	-236.6607818603516	-1592.153686523438	1638.473388671875	-432.0954284667969	-1398.767211914062	1647.778686523438	-509.726806640625	-1459.69189453125	1648.591552734375	-393.0585021972656	-1525.38671875	1642.566528320312	-596.7869262695312	-1517.138549804688	851.815185546875	-715.389892578125	-1739.844848632812	861.3236083984375	-384.8605651855469	-1614.708129882812	891.12646484375	-382.4660339355469	-1470.448120117188	885.156494140625	-595.76416015625	-1543.058349609375	427.1379699707031	-665.7689819335938	-1503.013305664062	577.8158569335938	-675.10888671875	-1689.023681640625	32.98777770996094	-749.972900390625	-1578.72900390625	276.2607116699219	-696.1390991210938	-1533.7802734375	58.09543228149414	-575.2595825195312	-1609.355102539062	54.94692611694336	-585.5028076171875	-1556.32177734375	52.30116271972656	-685.4039306640625	-1764.177612304688	31.21228408813477	-733.4805297851562	-1724.228515625	466.3141784667969	-393.3806457519531	-1717.384155273438	725.1182861328125	-353.2433471679688	-1818.111083984375	41.15944290161133	-425.4633483886719	-1750.9658203125	322.6876220703125	-386.3120422363281	-1607.130615234375	54.37386322021484	-369.0886840820312	-1644.995361328125	57.74228286743164	-430.7802429199219	-1709.077270507812	47.01207733154297	-343.5908508300781	-1855.6787109375	33.45536804199219	-499.3542175292969	
